<svg width="579" height="118" viewBox="0 0 579 118" fill="none" xmlns="http://www.w3.org/2000/svg">
<path d="M557.851 81.7939C553.715 81.7939 550.112 80.8226 547.042 78.8801C543.971 76.8749 541.559 74.0864 539.804 70.5147C538.113 66.9429 537.267 62.7759 537.267 58.0135C537.267 53.1885 538.113 48.9901 539.804 45.4184C541.559 41.8466 543.971 39.0582 547.042 37.053C550.112 35.0478 553.715 34.0452 557.851 34.0452C562.112 34.0452 565.809 35.0478 568.942 37.053C572.138 39.0582 574.613 41.8466 576.368 45.4184C578.122 48.9901 579 53.1885 579 58.0135C579 62.7759 578.122 66.9429 576.368 70.5147C574.613 74.0864 572.138 76.8749 568.942 78.8801C565.809 80.8226 562.112 81.7939 557.851 81.7939ZM534.635 98.7128V34.9851H541.778L544.034 44.1965H543.094V70.3267H544.034V98.7128H534.635ZM556.441 73.7105C560.326 73.7105 563.459 72.2692 565.841 69.3868C568.222 66.5043 569.412 62.7132 569.412 58.0135C569.412 53.2512 568.222 49.4288 565.841 46.5463C563.459 43.6012 560.326 42.1286 556.441 42.1286C552.619 42.1286 549.517 43.5698 547.136 46.4523C544.755 49.3348 543.564 53.1572 543.564 57.9195C543.564 62.6819 544.755 66.5043 547.136 69.3868C549.517 72.2692 552.619 73.7105 556.441 73.7105Z" fill="url(#paint0_linear_310_30)"/>
<path d="M499.219 81.7937C495.773 81.7937 493.047 81.2611 491.042 80.1958C489.036 79.0679 487.564 77.5953 486.624 75.7781C485.684 73.8982 485.057 71.799 484.744 69.4805C484.493 67.162 484.368 64.7808 484.368 62.337V34.9849H493.768V64.3109C493.768 67.5693 494.488 69.7625 495.929 70.8904C497.433 72.0184 499.188 72.5823 501.193 72.5823C503.261 72.5823 505.297 72.175 507.303 71.3604C509.37 70.5458 511.219 69.4492 512.848 68.0706C514.54 66.6294 515.793 65.0942 516.608 63.4649V68.7286H515.104V34.9849H524.503V80.8538H517.36L515.386 72.7703L517.736 72.4883C516.107 74.4309 514.289 76.1227 512.284 77.564C510.279 78.9426 508.18 80.0078 505.987 80.7598C503.794 81.449 501.538 81.7937 499.219 81.7937Z" fill="url(#paint1_linear_310_30)"/>
<path d="M454.707 81.7939C450.07 81.7939 445.966 80.8227 442.394 78.8801C438.885 76.8749 436.159 74.0864 434.217 70.5147C432.274 66.9429 431.303 62.7759 431.303 58.0135C431.303 53.1885 432.274 48.9901 434.217 45.4184C436.159 41.8466 438.885 39.0582 442.394 37.053C445.966 35.0478 450.07 34.0452 454.707 34.0452C459.407 34.0452 463.511 35.0478 467.02 37.053C470.529 39.0582 473.255 41.8466 475.198 45.4184C477.203 48.9901 478.206 53.1885 478.206 58.0135C478.206 62.7759 477.203 66.9429 475.198 70.5147C473.255 74.0864 470.529 76.8749 467.02 78.8801C463.511 80.8227 459.407 81.7939 454.707 81.7939ZM454.707 72.7705C458.906 72.7705 462.258 71.4233 464.764 68.7288C467.334 65.9717 468.618 62.3999 468.618 58.0135C468.618 53.5645 467.334 49.9614 464.764 47.2043C462.258 44.4471 458.906 43.0686 454.707 43.0686C450.571 43.0686 447.219 44.4471 444.65 47.2043C442.143 49.8988 440.89 53.4705 440.89 57.9195C440.89 62.3686 442.143 65.9717 444.65 68.7288C447.219 71.4233 450.571 72.7705 454.707 72.7705Z" fill="url(#paint2_linear_310_30)"/>
<path d="M413.954 34.9851L416.21 47.3923V80.854H406.811V34.9851H413.954ZM414.8 51.246L412.544 50.2121V43.3505L413.39 42.3166C414.017 41.1887 414.988 39.9981 416.304 38.7448C417.682 37.4289 419.28 36.3323 421.098 35.4551C422.915 34.5151 424.763 34.0452 426.643 34.0452C427.583 34.0452 428.46 34.1078 429.275 34.2332C430.152 34.3585 430.81 34.5778 431.249 34.8911V43.3505H428.335C424.074 43.3505 420.972 44.0085 419.03 45.3244C417.087 46.5776 415.677 48.5515 414.8 51.246Z" fill="url(#paint3_linear_310_30)"/>
<path d="M374.834 99.4647C372.202 99.4647 369.696 99.0887 367.314 98.3368C364.996 97.6475 362.865 96.4883 360.923 94.859C359.043 93.2298 357.351 91.068 355.847 88.3735L355.189 87.1516L362.615 83.1098C364.244 85.8043 365.967 87.8095 367.784 89.1254C369.664 90.504 372.014 91.1933 374.834 91.1933C378.656 91.1933 381.664 90.0027 383.857 87.6215C386.113 85.2404 387.241 81.5746 387.241 76.6243V66.8489H388.181V44.1965H387.241L389.497 34.9851H396.64V75.1204C396.64 80.5093 395.669 85.021 393.727 88.6555C391.847 92.2899 389.278 94.9844 386.019 96.7389C382.761 98.5561 379.032 99.4647 374.834 99.4647ZM373.706 78.0342C369.445 78.0342 365.685 77.1256 362.427 75.3084C359.231 73.4912 356.724 70.9533 354.907 67.6949C353.153 64.3738 352.275 60.52 352.275 56.1337C352.275 51.6846 353.153 47.8309 354.907 44.5725C356.724 41.2513 359.231 38.6822 362.427 36.865C365.685 34.9851 369.445 34.0452 373.706 34.0452C377.779 34.0452 381.319 34.9851 384.327 36.865C387.398 38.6822 389.779 41.2513 391.471 44.5725C393.163 47.8309 394.009 51.6846 394.009 56.1337C394.009 60.52 393.163 64.3738 391.471 67.6949C389.779 70.9533 387.398 73.4912 384.327 75.3084C381.319 77.1256 377.779 78.0342 373.706 78.0342ZM374.834 69.9507C378.719 69.9507 381.821 68.6975 384.139 66.191C386.52 63.6218 387.711 60.2381 387.711 56.0397C387.711 51.8413 386.52 48.4889 384.139 45.9824C381.821 43.4132 378.719 42.1286 374.834 42.1286C370.949 42.1286 367.816 43.4132 365.435 45.9824C363.053 48.5515 361.863 51.9353 361.863 56.1337C361.863 60.2694 363.053 63.6218 365.435 66.191C367.816 68.6975 370.949 69.9507 374.834 69.9507Z" fill="url(#paint4_linear_310_30)"/>
<path d="M327.916 82.2639C324.219 82.2639 320.741 81.5433 317.483 80.102C314.287 78.6608 311.373 76.1856 308.741 72.6765L316.543 65.157C318.673 67.3502 320.71 68.9168 322.652 69.8567C324.595 70.7967 326.725 71.2666 329.044 71.2666C330.422 71.2666 331.519 70.9847 332.334 70.4207C333.211 69.7941 333.65 69.0421 333.65 68.1648C333.65 67.4129 333.399 66.7863 332.898 66.285C332.396 65.7837 331.456 65.2824 330.078 64.7811C328.699 64.2798 326.694 63.6845 324.062 62.9952C319.237 61.8046 315.634 60.0814 313.253 57.8255C310.934 55.507 309.775 52.4366 309.775 48.6142C309.775 45.857 310.496 43.3505 311.937 41.0947C313.378 38.7762 315.446 36.9276 318.141 35.5491C320.835 34.1705 324.031 33.4812 327.728 33.4812C332.114 33.4812 335.843 34.3271 338.913 36.019C341.984 37.6482 344.521 39.6534 346.527 42.0346L338.067 49.2721C336.689 48.0189 335.028 46.9536 333.086 46.0763C331.143 45.1991 328.95 44.7604 326.506 44.7604C325.19 44.7604 324.062 45.0111 323.122 45.5124C322.182 46.0137 321.712 46.7656 321.712 47.7682C321.712 48.7082 322.276 49.4914 323.404 50.1181C324.532 50.7447 326.788 51.4653 330.172 52.2799C335.874 53.6585 339.947 55.507 342.391 57.8255C344.897 60.1441 346.151 63.2458 346.151 67.1309C346.151 70.1387 345.367 72.8019 343.801 75.1204C342.234 77.3762 340.072 79.1308 337.315 80.384C334.558 81.6373 331.425 82.2639 327.916 82.2639Z" fill="url(#paint5_linear_310_30)"/>
<path d="M281.551 81.6999C276.977 81.6999 272.935 80.7287 269.426 78.7861C265.979 76.8436 263.285 74.0864 261.342 70.5147C259.462 66.9429 258.522 62.7446 258.522 57.9195C258.522 53.1572 259.462 48.9588 261.342 45.3244C263.285 41.69 265.979 38.8702 269.426 36.865C272.935 34.7971 276.977 33.7632 281.551 33.7632C286.251 33.7632 290.324 34.8284 293.77 36.959C297.216 39.0895 299.88 41.972 301.76 45.6064C303.639 49.1781 304.579 53.2199 304.579 57.7316C304.579 58.5462 304.548 59.3294 304.485 60.0814C304.423 60.8333 304.36 61.4286 304.297 61.8673H269.238V52.0919H293.77L292.172 56.1337C292.172 52.6872 291.295 49.8674 289.54 47.6742C287.848 45.4811 285.217 44.3845 281.645 44.3845C278.449 44.3845 275.88 45.3557 273.937 47.2983C272.058 49.2408 271.118 51.81 271.118 55.0057V60.1754C271.118 63.6218 272.089 66.3163 274.031 68.2588C276.037 70.1387 278.794 71.0786 282.303 71.0786C285.248 71.0786 287.566 70.4834 289.258 69.2928C291.013 68.1022 292.485 66.6296 293.676 64.8751L302.981 70.0447C300.976 73.7418 298.156 76.6243 294.522 78.6921C290.888 80.6973 286.564 81.6999 281.551 81.6999Z" fill="url(#paint6_linear_310_30)"/>
<path d="M238.046 33.7632C241.116 33.7632 243.623 34.2958 245.565 35.3611C247.508 36.3637 248.981 37.7736 249.983 39.5908C251.048 41.408 251.738 43.4759 252.051 45.7944C252.427 48.0502 252.615 50.4001 252.615 52.8439V80.854H238.892V53.5958C238.892 50.964 238.422 49.2408 237.482 48.4262C236.542 47.5489 235.289 47.1103 233.722 47.1103C232.406 47.1103 231.028 47.3923 229.587 47.9562C228.208 48.4575 226.861 49.1781 225.545 50.1181C224.229 51.058 223.07 52.1233 222.067 53.3139L219.623 46.3583H223.477V80.854H209.754V34.8911H219.905L222.725 44.0085L218.025 43.6325C219.655 41.8153 221.503 40.1548 223.571 38.6509C225.639 37.147 227.895 35.9564 230.339 35.0791C232.782 34.2018 235.351 33.7632 238.046 33.7632Z" fill="url(#paint7_linear_310_30)"/>
<path d="M178.864 81.9819C174.102 81.9819 169.903 80.9793 166.269 78.9741C162.635 76.9063 159.815 74.0551 157.81 70.4207C155.804 66.7863 154.802 62.6192 154.802 57.9195C154.802 53.1572 155.804 48.9588 157.81 45.3244C159.815 41.69 162.635 38.8702 166.269 36.865C169.903 34.7971 174.102 33.7632 178.864 33.7632C183.689 33.7632 187.919 34.7971 191.553 36.865C195.188 38.8702 198.007 41.69 200.013 45.3244C202.081 48.9588 203.114 53.1572 203.114 57.9195C203.114 62.6192 202.081 66.7863 200.013 70.4207C198.007 74.0551 195.188 76.9063 191.553 78.9741C187.919 80.9793 183.689 81.9819 178.864 81.9819ZM178.864 68.6348C181.935 68.6348 184.41 67.6635 186.29 65.721C188.232 63.7158 189.203 61.1153 189.203 57.9195C189.203 54.6611 188.232 52.0293 186.29 50.0241C184.41 48.0189 181.935 47.0163 178.864 47.0163C175.919 47.0163 173.475 48.0189 171.533 50.0241C169.653 51.9666 168.713 54.5671 168.713 57.8256C168.713 61.084 169.653 63.7158 171.533 65.721C173.475 67.6635 175.919 68.6348 178.864 68.6348Z" fill="url(#paint8_linear_310_30)"/>
<path d="M133.299 99.1829C131.67 99.1829 130.322 99.0575 129.257 98.8069C128.254 98.5562 127.597 98.3683 127.283 98.2429V86.6817C127.597 86.7444 127.972 86.807 128.411 86.8697C128.912 86.9324 129.508 86.9637 130.197 86.9637C131.388 86.9637 132.296 86.5251 132.923 85.6478C133.549 84.8332 133.863 83.7053 133.863 82.264V34.8912H147.586V84.7079C147.586 87.2143 147.085 89.5642 146.082 91.7574C145.142 94.0132 143.607 95.7991 141.476 97.115C139.408 98.4936 136.683 99.1829 133.299 99.1829ZM132.547 20.4162C132.547 17.9724 133.267 15.9985 134.709 14.4946C136.213 12.9907 138.186 12.2388 140.63 12.2388C143.074 12.2388 145.017 12.9907 146.458 14.4946C147.962 15.9985 148.714 17.9724 148.714 20.4162C148.714 22.7974 147.962 24.7399 146.458 26.2438C145.017 27.6851 143.074 28.4057 140.63 28.4057C138.186 28.4057 136.213 27.6851 134.709 26.2438C133.267 24.7399 132.547 22.7974 132.547 20.4162Z" fill="url(#paint9_linear_310_30)"/>
<path d="M82.6884 71.2427L99.0392 54.8919C99.0392 43.6799 96.2362 32.9351 91.0974 23.5918L53.0234 58.8627V117.492H60.2645C85.725 117.492 106.514 96.9367 106.514 71.2427H82.6884Z" fill="url(#paint10_linear_310_30)"/>
<path d="M23.8254 46.2493L7.47464 62.6001C7.47464 73.8121 10.2776 84.5569 15.4164 93.9002L53.4904 58.6292V0H46.2493C20.7888 0 0 20.5553 0 46.2493H23.8254Z" fill="url(#paint11_linear_310_30)"/>
<defs>
<linearGradient id="paint0_linear_310_30" x1="534.635" y1="66.379" x2="579" y2="66.379" gradientUnits="userSpaceOnUse">
<stop stop-color="#FCFCFC"/>
<stop offset="1" stop-color="#F4F4F4"/>
</linearGradient>
<linearGradient id="paint1_linear_310_30" x1="484.368" y1="58.3893" x2="524.503" y2="58.3893" gradientUnits="userSpaceOnUse">
<stop stop-color="#FCFCFC"/>
<stop offset="1" stop-color="#F4F4F4"/>
</linearGradient>
<linearGradient id="paint2_linear_310_30" x1="431.303" y1="57.9195" x2="478.206" y2="57.9195" gradientUnits="userSpaceOnUse">
<stop stop-color="#FCFCFC"/>
<stop offset="1" stop-color="#F4F4F4"/>
</linearGradient>
<linearGradient id="paint3_linear_310_30" x1="406.811" y1="57.4496" x2="431.249" y2="57.4496" gradientUnits="userSpaceOnUse">
<stop stop-color="#FCFCFC"/>
<stop offset="1" stop-color="#F4F4F4"/>
</linearGradient>
<linearGradient id="paint4_linear_310_30" x1="352.275" y1="66.7549" x2="396.64" y2="66.7549" gradientUnits="userSpaceOnUse">
<stop stop-color="#FCFCFC"/>
<stop offset="1" stop-color="#F4F4F4"/>
</linearGradient>
<linearGradient id="paint5_linear_310_30" x1="308.741" y1="57.8725" x2="346.527" y2="57.8725" gradientUnits="userSpaceOnUse">
<stop stop-color="#FCFCFC"/>
<stop offset="1" stop-color="#F4F4F4"/>
</linearGradient>
<linearGradient id="paint6_linear_310_30" x1="258.522" y1="57.7316" x2="304.579" y2="57.7316" gradientUnits="userSpaceOnUse">
<stop stop-color="#FCFCFC"/>
<stop offset="1" stop-color="#F4F4F4"/>
</linearGradient>
<linearGradient id="paint7_linear_310_30" x1="209.754" y1="57.3086" x2="252.615" y2="57.3086" gradientUnits="userSpaceOnUse">
<stop stop-color="#FCFCFC"/>
<stop offset="1" stop-color="#F4F4F4"/>
</linearGradient>
<linearGradient id="paint8_linear_310_30" x1="154.802" y1="57.8725" x2="203.114" y2="57.8725" gradientUnits="userSpaceOnUse">
<stop stop-color="#FCFCFC"/>
<stop offset="1" stop-color="#F4F4F4"/>
</linearGradient>
<linearGradient id="paint9_linear_310_30" x1="127.283" y1="55.7108" x2="148.714" y2="55.7108" gradientUnits="userSpaceOnUse">
<stop stop-color="#FCFCFC"/>
<stop offset="1" stop-color="#F4F4F4"/>
</linearGradient>
<linearGradient id="paint10_linear_310_30" x1="53.0234" y1="70.5419" x2="106.514" y2="70.5419" gradientUnits="userSpaceOnUse">
<stop stop-color="#FCFCFC"/>
<stop offset="1" stop-color="#F4F4F4"/>
</linearGradient>
<linearGradient id="paint11_linear_310_30" x1="0" y1="46.9501" x2="53.4904" y2="46.9501" gradientUnits="userSpaceOnUse">
<stop stop-color="#FCFCFC"/>
<stop offset="1" stop-color="#F4F4F4"/>
</linearGradient>
</defs>
</svg>
