<svg width="579" height="118" viewBox="0 0 579 118" fill="none" xmlns="http://www.w3.org/2000/svg">
<path d="M557.851 81.7938C553.715 81.7938 550.112 80.8225 547.042 78.88C543.971 76.8748 541.559 74.0863 539.804 70.5146C538.113 66.9428 537.267 62.7758 537.267 58.0134C537.267 53.1884 538.113 48.99 539.804 45.4183C541.559 41.8465 543.971 39.058 547.042 37.0528C550.112 35.0476 553.715 34.045 557.851 34.045C562.112 34.045 565.809 35.0476 568.942 37.0528C572.138 39.058 574.613 41.8465 576.368 45.4183C578.122 48.99 579 53.1884 579 58.0134C579 62.7758 578.122 66.9428 576.368 70.5146C574.613 74.0863 572.138 76.8748 568.942 78.88C565.809 80.8225 562.112 81.7938 557.851 81.7938ZM534.635 98.7126V34.985H541.778L544.034 44.1964H543.094V70.3266H544.034V98.7126H534.635ZM556.441 73.7103C560.326 73.7103 563.459 72.2691 565.841 69.3866C568.222 66.5042 569.412 62.7131 569.412 58.0134C569.412 53.2511 568.222 49.4287 565.841 46.5462C563.459 43.6011 560.326 42.1285 556.441 42.1285C552.619 42.1285 549.517 43.5697 547.136 46.4522C544.755 49.3347 543.564 53.1571 543.564 57.9194C543.564 62.6818 544.755 66.5042 547.136 69.3866C549.517 72.2691 552.619 73.7103 556.441 73.7103Z" fill="url(#paint0_linear_310_2)"/>
<path d="M499.219 81.7936C495.773 81.7936 493.047 81.2609 491.042 80.1957C489.036 79.0677 487.564 77.5952 486.624 75.778C485.684 73.8981 485.057 71.7989 484.744 69.4804C484.493 67.1619 484.368 64.7807 484.368 62.3369V34.9847H493.768V64.3108C493.768 67.5692 494.488 69.7624 495.929 70.8903C497.433 72.0182 499.188 72.5822 501.193 72.5822C503.261 72.5822 505.297 72.1749 507.303 71.3603C509.37 70.5457 511.219 69.4491 512.848 68.0705C514.54 66.6293 515.793 65.094 516.608 63.4648V68.7285H515.104V34.9847H524.503V80.8536H517.36L515.386 72.7702L517.736 72.4882C516.107 74.4307 514.289 76.1226 512.284 77.5639C510.279 78.9424 508.18 80.0077 505.987 80.7596C503.794 81.4489 501.538 81.7936 499.219 81.7936Z" fill="url(#paint1_linear_310_2)"/>
<path d="M454.707 81.7938C450.07 81.7938 445.966 80.8225 442.394 78.88C438.885 76.8748 436.159 74.0863 434.217 70.5146C432.274 66.9428 431.303 62.7758 431.303 58.0134C431.303 53.1884 432.274 48.99 434.217 45.4183C436.159 41.8465 438.885 39.058 442.394 37.0528C445.966 35.0476 450.07 34.045 454.707 34.045C459.407 34.045 463.511 35.0476 467.02 37.0528C470.529 39.058 473.255 41.8465 475.198 45.4183C477.203 48.99 478.206 53.1884 478.206 58.0134C478.206 62.7758 477.203 66.9428 475.198 70.5146C473.255 74.0863 470.529 76.8748 467.02 78.88C463.511 80.8225 459.407 81.7938 454.707 81.7938ZM454.707 72.7704C458.906 72.7704 462.258 71.4232 464.764 68.7287C467.334 65.9715 468.618 62.3998 468.618 58.0134C468.618 53.5644 467.334 49.9613 464.764 47.2042C462.258 44.447 458.906 43.0684 454.707 43.0684C450.571 43.0684 447.219 44.447 444.65 47.2042C442.143 49.8986 440.89 53.4704 440.89 57.9194C440.89 62.3685 442.143 65.9715 444.65 68.7287C447.219 71.4232 450.571 72.7704 454.707 72.7704Z" fill="url(#paint2_linear_310_2)"/>
<path d="M413.954 34.985L416.21 47.3921V80.8539H406.811V34.985H413.954ZM414.8 51.2459L412.544 50.2119V43.3504L413.39 42.3165C414.017 41.1886 414.988 39.998 416.304 38.7447C417.682 37.4288 419.28 36.3322 421.098 35.4549C422.915 34.515 424.763 34.045 426.643 34.045C427.583 34.045 428.46 34.1077 429.275 34.233C430.152 34.3584 430.81 34.5777 431.249 34.891V43.3504H428.335C424.074 43.3504 420.972 44.0084 419.03 45.3243C417.087 46.5775 415.677 48.5514 414.8 51.2459Z" fill="url(#paint3_linear_310_2)"/>
<path d="M374.834 99.4646C372.202 99.4646 369.696 99.0886 367.314 98.3367C364.996 97.6474 362.865 96.4881 360.923 94.8589C359.043 93.2297 357.351 91.0678 355.847 88.3734L355.189 87.1514L362.615 83.1097C364.244 85.8042 365.967 87.8094 367.784 89.1253C369.664 90.5039 372.014 91.1932 374.834 91.1932C378.656 91.1932 381.664 90.0026 383.857 87.6214C386.113 85.2402 387.241 81.5745 387.241 76.6242V66.8488H388.181V44.1964H387.241L389.497 34.985H396.64V75.1203C396.64 80.5092 395.669 85.0209 393.727 88.6553C391.847 92.2898 389.278 94.9842 386.019 96.7388C382.761 98.556 379.032 99.4646 374.834 99.4646ZM373.706 78.0341C369.445 78.0341 365.685 77.1255 362.427 75.3082C359.231 73.491 356.724 70.9532 354.907 67.6948C353.153 64.3737 352.275 60.5199 352.275 56.1335C352.275 51.6845 353.153 47.8308 354.907 44.5723C356.724 41.2512 359.231 38.6821 362.427 36.8649C365.685 34.985 369.445 34.045 373.706 34.045C377.779 34.045 381.319 34.985 384.327 36.8649C387.398 38.6821 389.779 41.2512 391.471 44.5723C393.163 47.8308 394.009 51.6845 394.009 56.1335C394.009 60.5199 393.163 64.3737 391.471 67.6948C389.779 70.9532 387.398 73.491 384.327 75.3082C381.319 77.1255 377.779 78.0341 373.706 78.0341ZM374.834 69.9506C378.719 69.9506 381.821 68.6974 384.139 66.1909C386.52 63.6217 387.711 60.2379 387.711 56.0396C387.711 51.8412 386.52 48.4887 384.139 45.9822C381.821 43.4131 378.719 42.1285 374.834 42.1285C370.949 42.1285 367.816 43.4131 365.435 45.9822C363.053 48.5514 361.863 51.9352 361.863 56.1335C361.863 60.2693 363.053 63.6217 365.435 66.1909C367.816 68.6974 370.949 69.9506 374.834 69.9506Z" fill="url(#paint4_linear_310_2)"/>
<path d="M327.916 82.2636C324.219 82.2636 320.741 81.543 317.483 80.1018C314.287 78.6606 311.373 76.1854 308.741 72.6763L316.543 65.1568C318.673 67.35 320.71 68.9165 322.652 69.8565C324.595 70.7964 326.725 71.2664 329.044 71.2664C330.422 71.2664 331.519 70.9844 332.334 70.4204C333.211 69.7938 333.65 69.0419 333.65 68.1646C333.65 67.4127 333.399 66.786 332.898 66.2847C332.396 65.7834 331.456 65.2821 330.078 64.7808C328.699 64.2795 326.694 63.6842 324.062 62.9949C319.237 61.8044 315.634 60.0811 313.253 57.8253C310.934 55.5068 309.775 52.4363 309.775 48.6139C309.775 45.8568 310.496 43.3503 311.937 41.0944C313.378 38.7759 315.446 36.9274 318.141 35.5488C320.835 34.1702 324.031 33.481 327.728 33.481C332.114 33.481 335.843 34.3269 338.913 36.0188C341.984 37.648 344.521 39.6532 346.527 42.0344L338.067 49.2719C336.689 48.0186 335.028 46.9534 333.086 46.0761C331.143 45.1988 328.95 44.7602 326.506 44.7602C325.19 44.7602 324.062 45.0108 323.122 45.5121C322.182 46.0134 321.712 46.7654 321.712 47.768C321.712 48.7079 322.276 49.4912 323.404 50.1178C324.532 50.7445 326.788 51.4651 330.172 52.2797C335.874 53.6583 339.947 55.5068 342.391 57.8253C344.897 60.1438 346.151 63.2456 346.151 67.1307C346.151 70.1385 345.367 72.8016 343.801 75.1201C342.234 77.376 340.072 79.1305 337.315 80.3838C334.558 81.637 331.425 82.2636 327.916 82.2636Z" fill="url(#paint5_linear_310_2)"/>
<path d="M281.551 81.6999C276.977 81.6999 272.935 80.7287 269.426 78.7861C265.979 76.8436 263.285 74.0864 261.342 70.5147C259.462 66.9429 258.522 62.7446 258.522 57.9195C258.522 53.1572 259.462 48.9588 261.342 45.3244C263.285 41.69 265.979 38.8702 269.426 36.865C272.935 34.7971 276.977 33.7632 281.551 33.7632C286.251 33.7632 290.324 34.8284 293.77 36.959C297.216 39.0895 299.88 41.972 301.76 45.6064C303.639 49.1781 304.579 53.2199 304.579 57.7316C304.579 58.5462 304.548 59.3294 304.485 60.0814C304.423 60.8333 304.36 61.4286 304.297 61.8673H269.238V52.0919H293.77L292.172 56.1337C292.172 52.6872 291.295 49.8674 289.54 47.6742C287.848 45.4811 285.217 44.3845 281.645 44.3845C278.449 44.3845 275.88 45.3557 273.937 47.2983C272.058 49.2408 271.118 51.81 271.118 55.0057V60.1754C271.118 63.6218 272.089 66.3163 274.031 68.2588C276.037 70.1387 278.794 71.0786 282.303 71.0786C285.248 71.0786 287.566 70.4834 289.258 69.2928C291.013 68.1022 292.485 66.6296 293.676 64.8751L302.981 70.0447C300.976 73.7418 298.156 76.6243 294.522 78.6921C290.888 80.6973 286.564 81.6999 281.551 81.6999Z" fill="url(#paint6_linear_310_2)"/>
<path d="M238.046 33.7632C241.116 33.7632 243.623 34.2958 245.565 35.3611C247.508 36.3637 248.981 37.7736 249.983 39.5908C251.048 41.408 251.738 43.4759 252.051 45.7944C252.427 48.0502 252.615 50.4001 252.615 52.8439V80.854H238.892V53.5958C238.892 50.964 238.422 49.2408 237.482 48.4262C236.542 47.5489 235.289 47.1103 233.722 47.1103C232.406 47.1103 231.028 47.3923 229.587 47.9562C228.208 48.4575 226.861 49.1781 225.545 50.1181C224.229 51.058 223.07 52.1233 222.067 53.3139L219.623 46.3583H223.477V80.854H209.754V34.8911H219.905L222.725 44.0085L218.025 43.6325C219.655 41.8153 221.503 40.1548 223.571 38.6509C225.639 37.147 227.895 35.9564 230.339 35.0791C232.782 34.2018 235.351 33.7632 238.046 33.7632Z" fill="url(#paint7_linear_310_2)"/>
<path d="M178.864 81.9819C174.102 81.9819 169.903 80.9793 166.269 78.9741C162.635 76.9063 159.815 74.0551 157.81 70.4207C155.804 66.7863 154.802 62.6192 154.802 57.9195C154.802 53.1572 155.804 48.9588 157.81 45.3244C159.815 41.69 162.635 38.8702 166.269 36.865C169.903 34.7971 174.102 33.7632 178.864 33.7632C183.689 33.7632 187.919 34.7971 191.553 36.865C195.188 38.8702 198.007 41.69 200.013 45.3244C202.081 48.9588 203.114 53.1572 203.114 57.9195C203.114 62.6192 202.081 66.7863 200.013 70.4207C198.007 74.0551 195.188 76.9063 191.553 78.9741C187.919 80.9793 183.689 81.9819 178.864 81.9819ZM178.864 68.6348C181.935 68.6348 184.41 67.6635 186.29 65.721C188.232 63.7158 189.203 61.1153 189.203 57.9195C189.203 54.6611 188.232 52.0293 186.29 50.0241C184.41 48.0189 181.935 47.0163 178.864 47.0163C175.919 47.0163 173.475 48.0189 171.533 50.0241C169.653 51.9666 168.713 54.5671 168.713 57.8256C168.713 61.084 169.653 63.7158 171.533 65.721C173.475 67.6635 175.919 68.6348 178.864 68.6348Z" fill="url(#paint8_linear_310_2)"/>
<path d="M133.299 99.1827C131.67 99.1827 130.322 99.0574 129.257 98.8068C128.254 98.5561 127.597 98.3681 127.283 98.2428V86.6816C127.597 86.7442 127.972 86.8069 128.411 86.8696C128.912 86.9322 129.508 86.9636 130.197 86.9636C131.388 86.9636 132.296 86.5249 132.923 85.6477C133.549 84.8331 133.863 83.7051 133.863 82.2639V34.8911H147.586V84.7077C147.586 87.2142 147.085 89.5641 146.082 91.7572C145.142 94.0131 143.607 95.799 141.476 97.1149C139.408 98.4935 136.683 99.1827 133.299 99.1827ZM132.547 20.4161C132.547 17.9723 133.267 15.9984 134.709 14.4945C136.213 12.9906 138.186 12.2386 140.63 12.2386C143.074 12.2386 145.017 12.9906 146.458 14.4945C147.962 15.9984 148.714 17.9723 148.714 20.4161C148.714 22.7973 147.962 24.7398 146.458 26.2437C145.017 27.6849 143.074 28.4055 140.63 28.4055C138.186 28.4055 136.213 27.6849 134.709 26.2437C133.267 24.7398 132.547 22.7973 132.547 20.4161Z" fill="url(#paint9_linear_310_2)"/>
<path d="M82.6884 71.2427L99.0392 54.8919C99.0392 43.6799 96.2362 32.9351 91.0974 23.5918L53.0234 58.8627V117.492H60.2645C85.725 117.492 106.514 96.9367 106.514 71.2427H82.6884Z" fill="url(#paint10_linear_310_2)"/>
<path d="M23.8254 46.2493L7.47464 62.6001C7.47464 73.8121 10.2776 84.5569 15.4164 93.9002L53.4904 58.6292V0H46.2493C20.7888 0 0 20.5553 0 46.2493H23.8254Z" fill="url(#paint11_linear_310_2)"/>
<defs>
<linearGradient id="paint0_linear_310_2" x1="534.635" y1="66.3788" x2="579" y2="66.3788" gradientUnits="userSpaceOnUse">
<stop stop-color="#090909"/>
<stop offset="1" stop-color="#1B1F26" stop-opacity="0.72"/>
</linearGradient>
<linearGradient id="paint1_linear_310_2" x1="484.368" y1="58.3892" x2="524.503" y2="58.3892" gradientUnits="userSpaceOnUse">
<stop stop-color="#090909"/>
<stop offset="1" stop-color="#1B1F26" stop-opacity="0.72"/>
</linearGradient>
<linearGradient id="paint2_linear_310_2" x1="431.303" y1="57.9194" x2="478.206" y2="57.9194" gradientUnits="userSpaceOnUse">
<stop stop-color="#090909"/>
<stop offset="1" stop-color="#1B1F26" stop-opacity="0.72"/>
</linearGradient>
<linearGradient id="paint3_linear_310_2" x1="406.811" y1="57.4495" x2="431.249" y2="57.4495" gradientUnits="userSpaceOnUse">
<stop stop-color="#090909"/>
<stop offset="1" stop-color="#1B1F26" stop-opacity="0.72"/>
</linearGradient>
<linearGradient id="paint4_linear_310_2" x1="352.275" y1="66.7548" x2="396.64" y2="66.7548" gradientUnits="userSpaceOnUse">
<stop stop-color="#090909"/>
<stop offset="1" stop-color="#1B1F26" stop-opacity="0.72"/>
</linearGradient>
<linearGradient id="paint5_linear_310_2" x1="308.741" y1="57.8723" x2="346.527" y2="57.8723" gradientUnits="userSpaceOnUse">
<stop stop-color="#090909"/>
<stop offset="1" stop-color="#1B1F26" stop-opacity="0.72"/>
</linearGradient>
<linearGradient id="paint6_linear_310_2" x1="258.522" y1="57.7316" x2="304.579" y2="57.7316" gradientUnits="userSpaceOnUse">
<stop stop-color="#090909"/>
<stop offset="1" stop-color="#1B1F26" stop-opacity="0.72"/>
</linearGradient>
<linearGradient id="paint7_linear_310_2" x1="209.754" y1="57.3086" x2="252.615" y2="57.3086" gradientUnits="userSpaceOnUse">
<stop stop-color="#090909"/>
<stop offset="1" stop-color="#1B1F26" stop-opacity="0.72"/>
</linearGradient>
<linearGradient id="paint8_linear_310_2" x1="154.802" y1="57.8725" x2="203.114" y2="57.8725" gradientUnits="userSpaceOnUse">
<stop stop-color="#090909"/>
<stop offset="1" stop-color="#1B1F26" stop-opacity="0.72"/>
</linearGradient>
<linearGradient id="paint9_linear_310_2" x1="127.283" y1="55.7107" x2="148.714" y2="55.7107" gradientUnits="userSpaceOnUse">
<stop stop-color="#090909"/>
<stop offset="1" stop-color="#1B1F26" stop-opacity="0.72"/>
</linearGradient>
<linearGradient id="paint10_linear_310_2" x1="53.0234" y1="70.5419" x2="106.514" y2="70.5419" gradientUnits="userSpaceOnUse">
<stop stop-color="#090909"/>
<stop offset="1" stop-color="#1B1F26" stop-opacity="0.72"/>
</linearGradient>
<linearGradient id="paint11_linear_310_2" x1="0" y1="46.9501" x2="53.4904" y2="46.9501" gradientUnits="userSpaceOnUse">
<stop stop-color="#090909"/>
<stop offset="1" stop-color="#1B1F26" stop-opacity="0.72"/>
</linearGradient>
</defs>
</svg>
